<svg xmlns="http://www.w3.org/2000/svg" viewBox="0 0 512 512">
  <!-- Background -->
  <rect width="512" height="512" rx="80" fill="#0a0a0a"/>

  <!-- Panel face -->
  <rect x="32" y="80" width="448" height="352" rx="16" fill="#111111" stroke="#2a2a2a" stroke-width="2"/>

  <!-- Knob row 1 (orange — Roland style) -->
  <circle cx="100" cy="176" r="28" fill="#1e1e1e" stroke="#ff8800" stroke-width="3"/>
  <circle cx="100" cy="176" r="8"  fill="#ff8800"/>
  <line x1="100" y1="148" x2="100" y2="160" stroke="#ff8800" stroke-width="3" stroke-linecap="round"/>

  <circle cx="180" cy="176" r="28" fill="#1e1e1e" stroke="#ff8800" stroke-width="3"/>
  <circle cx="180" cy="176" r="8"  fill="#ff8800"/>
  <line x1="166" y1="154" x2="173" y2="162" stroke="#ff8800" stroke-width="3" stroke-linecap="round"/>

  <circle cx="260" cy="176" r="28" fill="#1e1e1e" stroke="#8855dd" stroke-width="3"/>
  <circle cx="260" cy="176" r="8"  fill="#8855dd"/>
  <line x1="260" y1="148" x2="260" y2="160" stroke="#8855dd" stroke-width="3" stroke-linecap="round"/>

  <circle cx="340" cy="176" r="28" fill="#1e1e1e" stroke="#8855dd" stroke-width="3"/>
  <circle cx="340" cy="176" r="8"  fill="#8855dd"/>
  <line x1="354" y1="154" x2="347" y2="162" stroke="#8855dd" stroke-width="3" stroke-linecap="round"/>

  <circle cx="420" cy="176" r="28" fill="#1e1e1e" stroke="#4488ff" stroke-width="3"/>
  <circle cx="420" cy="176" r="8"  fill="#4488ff"/>
  <line x1="420" y1="148" x2="420" y2="160" stroke="#4488ff" stroke-width="3" stroke-linecap="round"/>

  <!-- VU / waveform display -->
  <rect x="56" y="228" width="400" height="48" rx="6" fill="#050505" stroke="#2a2a2a" stroke-width="1"/>
  <!-- Waveform polyline: sawtooth + sine hint -->
  <polyline
    points="66,252 106,218 106,284 146,252 176,230 206,274 236,252 266,222 296,282 326,252 356,228 386,276 416,252 446,252"
    fill="none" stroke="#8855dd" stroke-width="2.5" stroke-linecap="round" stroke-linejoin="round" opacity="0.9"/>

  <!-- Mini keyboard -->
  <!-- White keys -->
  <rect x="56"  y="300" width="36" height="96" rx="3" fill="#e8e0ff" stroke="#7755cc" stroke-width="1.5"/>
  <rect x="98"  y="300" width="36" height="96" rx="3" fill="#e8e0ff" stroke="#7755cc" stroke-width="1.5"/>
  <rect x="140" y="300" width="36" height="96" rx="3" fill="#e8e0ff" stroke="#7755cc" stroke-width="1.5"/>
  <rect x="182" y="300" width="36" height="96" rx="3" fill="#e8e0ff" stroke="#7755cc" stroke-width="1.5"/>
  <rect x="224" y="300" width="36" height="96" rx="3" fill="#e8e0ff" stroke="#7755cc" stroke-width="1.5"/>
  <rect x="266" y="300" width="36" height="96" rx="3" fill="#e8e0ff" stroke="#7755cc" stroke-width="1.5"/>
  <rect x="308" y="300" width="36" height="96" rx="3" fill="#e8e0ff" stroke="#7755cc" stroke-width="1.5"/>
  <rect x="350" y="300" width="36" height="96" rx="3" fill="#e8e0ff" stroke="#7755cc" stroke-width="1.5"/>
  <rect x="392" y="300" width="36" height="96" rx="3" fill="#e8e0ff" stroke="#7755cc" stroke-width="1.5"/>
  <rect x="434" y="300" width="22" height="96" rx="3" fill="#cc99ff" stroke="#7755cc" stroke-width="1.5"/>

  <!-- Black keys -->
  <rect x="82"  y="300" width="26" height="60" rx="3" fill="#1a1030" stroke="#5533aa" stroke-width="1.5"/>
  <rect x="124" y="300" width="26" height="60" rx="3" fill="#1a1030" stroke="#5533aa" stroke-width="1.5"/>
  <rect x="208" y="300" width="26" height="60" rx="3" fill="#1a1030" stroke="#5533aa" stroke-width="1.5"/>
  <rect x="250" y="300" width="26" height="60" rx="3" fill="#1a1030" stroke="#5533aa" stroke-width="1.5"/>
  <rect x="292" y="300" width="26" height="60" rx="3" fill="#1a1030" stroke="#5533aa" stroke-width="1.5"/>
  <rect x="334" y="300" width="26" height="60" rx="3" fill="#8844cc" stroke="#aa77ff" stroke-width="1.5"/>
  <rect x="418" y="300" width="26" height="60" rx="3" fill="#1a1030" stroke="#5533aa" stroke-width="1.5"/>
</svg>
